<svg xmlns:dc="http://purl.org/dc/elements/1.1/" xmlns:cc="http://creativecommons.org/ns#" xmlns:rdf="http://www.w3.org/1999/02/22-rdf-syntax-ns#" xmlns:svg="http://www.w3.org/2000/svg" xmlns="http://www.w3.org/2000/svg" xmlns:sodipodi="http://sodipodi.sourceforge.net/DTD/sodipodi-0.dtd" xmlns:inkscape="http://www.inkscape.org/namespaces/inkscape" viewBox="0 0 16.933333 16.933333" version="1.1" x="0px" y="0px"><g transform="translate(0,-280.06667)"  display="inline"><path  d="m 26,6 c -0.554,0 -1,0.39025 -1,0.875 v 5.169922 c -5.42331,0.4516 -9.897746,4.539742 -10.816406,9.945312 l -6.8730471,4.28125 C 5.7884569,27.226564 5,29 5,31 c 0,1.11612 0.3200344,2.243528 0.9277344,3.205078 1.63325,2.58423 4.9685376,3.518751 7.7050776,2.181641 l 2.294922,-1.080078 C 16.534544,35.055291 17.20033,34.805948 18,35.267578 18.62019,35.625648 19,36.28387 19,37 18.6753,49.91505 12.199149,55.281922 7.7929688,57.513672 6.0847987,58.353772 5,60.09644 5,62 v 2 c 0,1.06048 0.421855,2.078255 1.171875,2.828125 C 6.921745,67.578005 7.93952,68 9,68 H 29.037109 C 28.396309,67.15926 28,66.12576 28,65 v -1 c 0,-1.31265 0.38924,-2.582802 1.21875,-3.570312 0.74984,-0.892681 1.615479,-1.353435 2.199219,-1.677735 1.22775,-0.68208 2.02713,-1.011431 3.18164,-2.550781 0.67679,-0.90239 0.972617,-2.081761 1.154297,-3.457031 C 33.624116,52.171921 32,50.29706 32,48 v -1 c 0,-1.84992 1.077217,-3.418733 2.591797,-4.283203 C 34.225027,41.706867 34,40.63146 34,39.5 c 0,-4.71168 3.48422,-8.642491 8,-9.369141 V 22 C 42,17.75692 40.31281,13.68781 37.3125,10.6875 34.31219,7.68719 30.24308,6 26,6 Z m 17.5,26 c -4.142137,-4e-6 -7.500004,3.35786 -7.5,7.5 -2e-6,1.6899 0.562816,3.24594 1.505859,4.5 H 37 c -1.656854,0 -3,1.34315 -3,3 v 1 c 0,1.65685 1.343146,3 3,3 h 0.960938 c -0.08955,2.52294 -0.438927,4.636671 -1.761719,6.400391 -1.38,1.84 -2.65256,2.456279 -3.810547,3.099609 C 31.809678,60.82166 31.227761,61.148027 30.75,61.716797 30.272239,62.285557 30,63.08333 30,64 v 1 c 0,1.65685 1.34315,3 3,3 h 21 c 1.65685,0 3,-1.34315 3,-3 V 64 C 57,63.08333 56.727761,62.285557 56.25,61.716797 55.772239,61.148027 55.190322,60.82166 54.611328,60.5 53.453341,59.85667 52.180781,59.240391 50.800781,57.400391 49.477989,55.636671 49.128616,53.52294 49.039062,51 H 50 c 1.656854,0 3,-1.34315 3,-3 v -1 c 0,-1.65685 -1.343146,-3 -3,-3 H 49.494141 C 50.437184,42.74594 51.000002,41.1899 51,39.5 c 4e-6,-4.14214 -3.357863,-7.500004 -7.5,-7.5 z m 0,2 c 3.037566,0 5.5,2.46243 5.5,5.5 0,1.96273 -0.984199,3.681197 -2.53125,4.654297 C 46.177539,44.336897 46.000521,44.65627 46,45 c -3.29e-4,0.40394 0.242516,0.769708 0.615234,0.923828 C 46.737204,45.974428 46.867974,46.0002 47,46 h 3 c 0.552285,0 1,0.44772 1,1 v 1 c 0,0.55228 -0.447715,1 -1,1 h -2 c -0.552285,0 -1,0.44772 -1,1 0.03272,3.10027 0.30439,6.073169 2.199219,8.599609 1.62,2.16 3.34744,3.043721 4.439453,3.650391 0.546006,0.30334 0.901589,0.539473 1.080078,0.751953 C 54.897239,63.214353 55,63.41667 55,64 v 1 c 0,0.55229 -0.44772,1 -1,1 H 33 c -0.55228,0 -1,-0.44771 -1,-1 v -1 c 0,-0.58333 0.102761,-0.785557 0.28125,-0.998047 0.178489,-0.21248 0.534072,-0.448613 1.080078,-0.751953 1.092013,-0.60667 2.819453,-1.490391 4.439453,-3.650391 C 39.69561,56.073169 39.967284,53.110036 40,50.009766 40,49.457486 39.552285,49 39,49 h -2 c -0.552285,0 -1,-0.44772 -1,-1 v -1 c 0,-0.55228 0.447715,-1 1,-1 h 3 c 0.132026,2.6e-4 0.262796,-0.02557 0.384766,-0.07617 C 40.757484,45.769798 41.000329,45.40394 41,45 40.999479,44.65627 40.822461,44.336897 40.53125,44.154297 38.984199,43.181197 38,41.46273 38,39.5 38,36.46243 40.462434,34 43.5,34 Z" transform="matrix(0.26458333,0,0,0.26458333,0.26458333,278.74377)"></path></g></svg>